<?xml version="1.0" encoding="utf-8"?>
<!-- Generator: Adobe Illustrator 26.2.1, SVG Export Plug-In . SVG Version: 6.00 Build 0)  -->
<svg version="1.1" id="Graphic_Elements_00000092415236524938273300000000345724187550200727_"
	 xmlns="http://www.w3.org/2000/svg" xmlns:xlink="http://www.w3.org/1999/xlink" x="0px" y="0px" viewBox="0 0 1200 1200"
	 style="enable-background:new 0 0 1200 1200;" xml:space="preserve">
<style type="text/css">
	.st0{fill:rgb(21, 151, 21);}
</style>
<g>
	<g id="Graphic_Elements">
		<g>
			<path class="st0" d="M338.84,221.11c-83.32,0.17-150.72,67.84-150.56,151.16c0.14,68.79,46.79,128.77,113.43,145.84
				c1.39,0.36,2.81,0.54,4.24,0.54c9.52-0.03,17.22-7.78,17.19-17.3c-0.03-7.86-5.36-14.7-12.97-16.65
				c-62.29-15.84-99.95-79.18-84.11-141.47s79.18-99.95,141.47-84.11c42.94,10.92,75.96,45.28,85.16,88.62
				c2.04,9.3,11.22,15.18,20.52,13.15c9.2-2.02,15.08-11.04,13.2-20.27C471.78,271.35,409.72,221.11,338.84,221.11z"/>
			<path class="st0" d="M338.84,199.58c9.52,0,17.23-7.72,17.23-17.23l0,0V88.37c0-9.52-7.72-17.23-17.23-17.23
				c-9.52,0-17.23,7.72-17.23,17.23v93.98C321.61,191.87,329.32,199.58,338.84,199.58L338.84,199.58z"/>
			<path class="st0" d="M229.14,216.36c4.77,8.24,15.31,11.06,23.55,6.29c8.24-4.77,11.06-15.31,6.29-23.55L212,117.72
				c-4.76-8.25-15.3-11.07-23.55-6.31s-11.07,15.3-6.31,23.55L229.14,216.36z"/>
			<path class="st0" d="M84.67,245.07l81.39,46.98c8.24,4.76,18.78,1.95,23.54-6.29c0,0,0-0.01,0.01-0.01
				c4.76-8.25,1.94-18.79-6.31-23.55l-81.39-46.98c-8.25-4.76-18.79-1.93-23.55,6.31c-4.76,8.25-1.93,18.79,6.31,23.55L84.67,245.07
				z"/>
			<path class="st0" d="M166.51,371.91c0-9.52-7.72-17.23-17.23-17.23c0,0,0,0,0,0H55.29c-9.52,0-17.23,7.72-17.23,17.23
				c0,9.52,7.72,17.23,17.23,17.23h93.99C158.79,389.15,166.51,381.43,166.51,371.91L166.51,371.91z"/>
			<path class="st0" d="M189.61,458.08c-4.76-8.24-15.3-11.06-23.54-6.31l-81.39,46.98c-8.25,4.75-11.09,15.28-6.34,23.53
				c3.08,5.35,8.79,8.65,14.97,8.64c3.01-0.01,5.96-0.8,8.56-2.31l81.39-46.98C191.51,476.89,194.36,466.35,189.61,458.08
				C189.61,458.08,189.61,458.08,189.61,458.08z"/>
			<path class="st0" d="M252.68,521.15c-8.24-4.76-18.77-1.94-23.53,6.3c0,0.01-0.01,0.02-0.01,0.02l-46.99,81.39
				c-4.57,8.36-1.49,18.84,6.87,23.4c8.08,4.41,18.2,1.7,22.99-6.16l46.98-81.4c4.76-8.24,1.95-18.78-6.29-23.54
				C252.68,521.15,252.68,521.15,252.68,521.15z"/>
			<path class="st0" d="M488.07,285.75c3.09,5.34,8.78,8.62,14.95,8.62c3.01-0.01,5.96-0.8,8.56-2.31l81.4-46.98
				c8.52-4.25,11.98-14.61,7.73-23.13c-4.25-8.52-14.61-11.98-23.13-7.73c-0.6,0.3-1.18,0.63-1.74,1l-81.39,46.98
				c-8.26,4.74-11.11,15.28-6.37,23.54C488.07,285.74,488.07,285.75,488.07,285.75z"/>
			<path class="st0" d="M425.01,222.67c2.6,1.51,5.55,2.31,8.56,2.31c6.17,0.01,11.87-3.28,14.95-8.62l46.99-81.39
				c4.76-8.25,1.93-18.79-6.31-23.55c-8.25-4.76-18.79-1.93-23.55,6.31l-46.96,81.36c-4.77,8.24-1.95,18.78,6.29,23.55
				C424.99,222.66,425,222.66,425.01,222.67z"/>
			<path class="st0" d="M1120.81,861.04c-9.52,0-17.23,7.72-17.23,17.23c0,0,0,0.01,0,0.01c0,31.03-30.64,56.22-68.31,56.22H371.05
				c-37.67,0-68.31-25.25-68.31-56.22c0.25-9.52-7.26-17.44-16.78-17.7c-9.52-0.25-17.44,7.26-17.7,16.78
				c-0.01,0.31-0.01,0.61,0,0.92c0,50.04,46.11,90.75,102.79,90.75h249.33v125.34h-99.94c-9.52-0.25-17.45,7.26-17.7,16.78
				c-0.25,9.52,7.26,17.45,16.78,17.7c0.31,0.01,0.61,0.01,0.92,0h365.44c9.52-0.25,17.03-8.18,16.78-17.7
				c-0.24-9.16-7.62-16.54-16.78-16.78h-99.93V969.1h249.33c56.67,0,102.78-40.71,102.78-90.75c0.04-9.52-7.64-17.27-17.16-17.31
				C1120.87,861.04,1120.84,861.04,1120.81,861.04z"/>
			<path class="st0" d="M519.53,580.01H361.7c-1.46-0.02-2.91-0.23-4.31-0.61l-33.07,127.56h178.36L519.53,580.01z"/>
			<path class="st0" d="M381.74,485.48l-15.57,60.05h157.95l17.73-133.56h-77.93C418.53,411.97,394.82,436.63,381.74,485.48z"/>
			<path class="st0" d="M685.91,411.97H576.39c0.03,0.76,0.01,1.52-0.07,2.27l-17.44,131.29h127.04V411.97z"/>
			<path class="st0" d="M830.05,414.22c-0.07-0.76-0.1-1.51-0.07-2.27H720.39v133.59h127.04L830.05,414.22z"/>
			<path class="st0" d="M903.65,706.96h178.34l-33-127.27c-1.01,0.2-2.03,0.31-3.06,0.32H886.78L903.65,706.96z"/>
			<path class="st0" d="M1040.14,545.53l-15.57-60.05c-13.29-48.89-36.8-73.52-82.19-73.52h-77.93l17.75,133.56H1040.14z"/>
			<polygon class="st0" points="873.46,741.42 720.39,741.42 720.39,867.02 890.14,867.02 			"/>
			<polygon class="st0" points="852.01,580.01 720.39,580.01 720.39,706.96 868.88,706.96 			"/>
			<path class="st0" d="M924.61,864.75c0.07,0.76,0.1,1.51,0.07,2.27h97.56c45.39,0,82.19-32.93,82.19-73.53l-13.6-52.44
				c-1.18,0.25-2.38,0.38-3.58,0.38H908.27L924.61,864.75z"/>
			<path class="st0" d="M384.07,867.02h97.56c-0.03-0.76-0.01-1.52,0.07-2.27l16.38-123.32H319.85c-1.46-0.02-2.91-0.22-4.31-0.61
				l-13.65,52.68C301.88,834.09,338.72,867.02,384.07,867.02z"/>
			<polygon class="st0" points="685.91,580.01 554.3,580.01 537.44,706.96 685.91,706.96 			"/>
			<polygon class="st0" points="685.91,741.42 532.85,741.42 516.17,867.02 685.91,867.02 			"/>
		</g>
	</g>
</g>
</svg>
