<?xml version="1.0" encoding="iso-8859-1"?>
<!-- Uploaded to: SVG Repo, www.svgrepo.com, Generator: SVG Repo Mixer Tools -->
<svg version="1.1" id="Layer_1" xmlns="http://www.w3.org/2000/svg" xmlns:xlink="http://www.w3.org/1999/xlink" 
	 viewBox="0 0 512 512" xml:space="preserve">
<path style="fill:#C3C7C9;" d="M427.444,296.13v207.811h-41.562V353.279H276.781v150.662H84.556V296.13h77.929H256h93.515H427.444z
	 M230.024,462.379v-51.953v-51.952h-51.952h-51.953v51.952v51.953h51.953H230.024z"/>
<rect x="276.781" y="353.275" style="fill:#FFD311;" width="109.105" height="150.667"/>
<g>
	<rect x="126.114" y="410.427" style="fill:#00ABD5;" width="51.952" height="51.952"/>
	<rect x="178.066" y="358.475" style="fill:#00ABD5;" width="51.952" height="51.952"/>
</g>
<g>
	<rect x="178.066" y="410.427" style="fill:#009AD2;" width="51.952" height="51.952"/>
	<rect x="126.114" y="358.475" style="fill:#009AD2;" width="51.952" height="51.952"/>
	<rect x="349.514" y="129.886" style="fill:#009AD2;" width="109.105" height="83.123"/>
	<rect x="256" y="213.009" style="fill:#009AD2;" width="93.514" height="83.123"/>
	<polygon style="fill:#009AD2;" points="162.485,213.006 162.485,296.13 84.556,296.13 53.384,296.13 53.384,213.006 	"/>
	<rect x="162.486" y="129.886" style="fill:#009AD2;" width="93.514" height="83.123"/>
</g>
<g>
	<polygon style="fill:#00ABD5;" points="349.515,213.006 458.616,213.006 458.616,296.13 427.444,296.13 349.515,296.13 	"/>
	<rect x="256" y="129.886" style="fill:#00ABD5;" width="93.514" height="83.123"/>
	<rect x="162.486" y="213.009" style="fill:#00ABD5;" width="93.514" height="83.123"/>
	<rect x="53.384" y="129.886" style="fill:#00ABD5;" width="109.105" height="83.123"/>
</g>
<path style="fill:#A7ABAD;" d="M162.485,296.13H84.556v207.811H256V296.13H162.485z M230.024,462.379h-51.952h-51.953v-51.953
	v-51.952h51.953h51.952v51.952L230.024,462.379L230.024,462.379z"/>
<path d="M466.674,304.189V121.823H45.326v182.367h31.171v191.693H53.384V512h405.231v-16.118h-23.114V304.189H466.674z
	 M357.574,288.072v-67.006h92.983v67.006H357.574z M247.941,204.947h-77.397V137.94h77.397V204.947z M264.059,137.94h77.396v67.007
	h-77.396V137.94z M247.941,221.065v67.006h-77.397v-67.006L247.941,221.065L247.941,221.065z M264.059,221.065h77.396v67.006
	h-77.396V221.065z M450.557,204.947h-92.983V137.94h92.983V204.947z M154.426,137.94v67.007H61.443V137.94H154.426z M61.443,221.065
	h92.983v67.006H61.443V221.065z M377.823,495.882H284.84V361.337h92.983V495.882z M419.384,495.882H393.94V345.219H268.722v150.663
	H92.615V304.189h326.77V495.882z"/>
<rect x="333.934" y="423.149" width="25.981" height="16.118"/>
<path d="M238.083,470.437V350.414H118.059v120.023H238.083z M134.176,418.485h35.836v35.835h-35.836V418.485z M186.129,454.32
	v-35.835h35.836v35.835H186.129z M221.965,402.367h-35.836v-35.836h35.836V402.367z M170.012,366.532v35.836h-35.836v-35.836
	H170.012z"/>
<g>
	<rect x="74.162" y="152.998" style="fill:#FFFFFF;" width="20.781" height="16.118"/>
	<rect x="94.943" y="173.779" style="fill:#FFFFFF;" width="20.781" height="16.118"/>
</g>
<rect x="375.495" y="256.903" width="20.781" height="16.118"/>
<rect x="396.276" y="236.122" width="20.781" height="16.118"/>
<rect x="375.495" y="152.998" style="fill:#FFFFFF;" width="20.781" height="16.118"/>
<rect x="188.457" y="152.998" width="20.781" height="16.118"/>
<rect x="281.981" y="236.122" style="fill:#FFFFFF;" width="20.781" height="16.118"/>
<path d="M258.332,103.905h16.118c0-15.816-6.74-24.242-12.157-31.011c-4.818-6.023-8.624-10.78-8.624-20.941
	s3.806-14.918,8.624-20.941c5.417-6.772,12.157-15.197,12.157-31.012h-16.118c0,10.162-3.806,14.919-8.625,20.942
	c-5.417,6.77-12.157,15.197-12.157,31.01s6.74,24.241,12.157,31.01C254.526,88.986,258.332,93.744,258.332,103.905z"/>
<path d="M362.237,103.905h16.118c0-10.162,3.806-14.919,8.625-20.942c5.415-6.77,12.156-15.196,12.156-31.01
	s-6.74-24.241-12.156-31.01c-4.819-6.023-8.625-10.78-8.625-20.942h-16.118c0,15.816,6.74,24.241,12.158,31.011
	c4.818,6.024,8.624,10.78,8.624,20.941s-3.806,14.918-8.624,20.941C368.977,79.665,362.237,88.09,362.237,103.905z"/>
<path d="M112.865,103.905h16.118c0-10.162,3.806-14.919,8.625-20.942c5.417-6.77,12.157-15.196,12.157-31.01
	s-6.74-24.241-12.157-31.01c-4.819-6.023-8.625-10.78-8.625-20.942h-16.118c0,15.816,6.74,24.241,12.157,31.011
	c4.818,6.024,8.624,10.78,8.624,20.941s-3.806,14.918-8.624,20.941C119.605,79.665,112.865,88.09,112.865,103.905z"/>
<rect x="172.877" y="85.455" width="20.781" height="16.118"/>
<rect x="193.657" y="64.674" width="20.781" height="16.118"/>
<rect x="172.877" y="43.894" width="20.781" height="16.118"/>
<rect x="307.952" y="23.114" width="20.782" height="16.118"/>
<rect x="287.171" y="43.894" width="20.781" height="16.118"/>
<rect x="318.343" y="85.455" width="20.782" height="16.118"/>
</svg>